<svg width="512" height="512" viewBox="0 0 512 512" fill="none" xmlns="http://www.w3.org/2000/svg">
  <!-- Crown (Azora Symbol) -->
  <path d="M256 96L286 176L356 156L326 226L406 256L326 286L356 356L286 326L256 406L226 326L156 356L186 286L106 256L186 226L156 156L226 176L256 96Z" fill="#0066FF"/>
  <path d="M256 136L276 196L336 181L311 241L371 266L311 291L336 351L276 336L256 396L236 336L176 351L201 291L141 266L201 241L176 181L236 196L256 136Z" fill="#60A5FA"/>
  <circle cx="256" cy="256" r="30" fill="#FCD34D"/>
  <circle cx="256" cy="256" r="20" fill="white"/>
</svg>
