<svg width="96" height="96" viewBox="0 0 96 96" fill="none" xmlns="http://www.w3.org/2000/svg">
  <!-- Platinum Badge -->
  <circle cx="48" cy="48" r="44" fill="url(#platinum-gradient)"/>
  <circle cx="48" cy="48" r="40" fill="url(#platinum-inner)"/>
  <circle cx="48" cy="48" r="36" fill="#0EA5E9"/>
  <!-- Shine Effects -->
  <path d="M48 12C48 12 32 28 32 48C32 68 48 84 48 84" stroke="white" stroke-width="5" opacity="0.9">
    <animate attributeName="stroke-opacity" values="0.9;0.5;0.9" dur="2s" repeatCount="indefinite"/>
  </path>
  <path d="M48 12C48 12 64 28 64 48C64 68 48 84 48 84" stroke="white" stroke-width="4" opacity="0.7">
    <animate attributeName="stroke-opacity" values="0.7;0.3;0.7" dur="2s" begin="0.5s" repeatCount="indefinite"/>
  </path>
  <!-- Sparkles -->
  <circle cx="20" cy="32" r="4" fill="#F0F9FF">
    <animate attributeName="opacity" values="0.5;1;0.5" dur="1.5s" repeatCount="indefinite"/>
  </circle>
  <circle cx="76" cy="32" r="4" fill="#F0F9FF">
    <animate attributeName="opacity" values="1;0.5;1" dur="1.5s" repeatCount="indefinite"/>
  </circle>
  <circle cx="24" cy="64" r="3" fill="#F0F9FF">
    <animate attributeName="opacity" values="0.7;1;0.7" dur="1.8s" begin="0.3s" repeatCount="indefinite"/>
  </circle>
  <circle cx="72" cy="64" r="3" fill="#F0F9FF">
    <animate attributeName="opacity" values="1;0.7;1" dur="1.8s" begin="0.6s" repeatCount="indefinite"/>
  </circle>
  <!-- Icon -->
  <text x="48" y="58" font-family="Inter, sans-serif" font-weight="700" font-size="32" fill="white" text-anchor="middle">5×</text>
  <!-- Label -->
  <text x="48" y="88" font-family="Inter, sans-serif" font-weight="700" font-size="12" fill="#0369A1" text-anchor="middle">PLATINUM</text>
  
  <defs>
    <linearGradient id="platinum-gradient" x1="48" y1="4" x2="48" y2="92">
      <stop offset="0%" stop-color="#E0F2FE"/>
      <stop offset="50%" stop-color="#BAE6FD"/>
      <stop offset="100%" stop-color="#7DD3FC"/>
    </linearGradient>
    <linearGradient id="platinum-inner" x1="48" y1="8" x2="48" y2="88">
      <stop offset="0%" stop-color="#38BDF8"/>
      <stop offset="100%" stop-color="#0EA5E9"/>
    </linearGradient>
  </defs>
</svg>
