<svg xmlns="http://www.w3.org/2000/svg" viewBox="0 0 1024 1024" fill="none">
  <defs>
    <linearGradient id="appGrad" x1="0%" y1="0%" x2="100%" y2="100%">
      <stop offset="0%" style="stop-color:#8b5cf6;stop-opacity:1" />
      <stop offset="100%" style="stop-color:#ec4899;stop-opacity:1" />
    </linearGradient>
    <linearGradient id="appAccent" x1="0%" y1="0%" x2="100%" y2="100%">
      <stop offset="0%" style="stop-color:#06b6d4;stop-opacity:1" />
      <stop offset="100%" style="stop-color:#8b5cf6;stop-opacity:1" />
    </linearGradient>
  </defs>
  
  <!-- Background with subtle gradient -->
  <rect width="1024" height="1024" rx="226" fill="#0f172a"/>
  <rect width="1024" height="1024" rx="226" fill="url(#appGrad)" opacity="0.05"/>
  
  <!-- Main Icon -->
  <g transform="translate(512, 512)">
    <!-- Modern "A" shape -->
    <path d="M -120,200 L -60,-200 L 20,-200 L -40,200 Z" fill="url(#appGrad)"/>
    <path d="M 60,-200 L 120,200 L 40,200 L -20,-200 Z" fill="url(#appGrad)"/>
    
    <!-- Crossbar with glow -->
    <rect x="-70" y="20" width="140" height="35" rx="17" fill="url(#appAccent)"/>
    
    <!-- Neural network nodes -->
    <circle cx="0" cy="-230" r="20" fill="#ec4899"/>
    <circle cx="-100" cy="180" r="16" fill="#8b5cf6"/>
    <circle cx="100" cy="180" r="16" fill="#06b6d4"/>
    
    <!-- Connection lines -->
    <line x1="0" y1="-230" x2="-40" y2="-150" stroke="#8b5cf6" stroke-width="4" opacity="0.4"/>
    <line x1="0" y1="-230" x2="40" y2="-150" stroke="#ec4899" stroke-width="4" opacity="0.4"/>
    
    <!-- Orbit ring -->
    <circle cx="0" cy="0" r="320" stroke="url(#appAccent)" stroke-width="6" fill="none" opacity="0.3"/>
    
    <!-- Orbital nodes -->
    <circle cx="0" cy="-320" r="12" fill="#06b6d4"/>
    <circle cx="320" cy="0" r="12" fill="#ec4899"/>
    <circle cx="0" cy="320" r="12" fill="#8b5cf6"/>
    <circle cx="-320" cy="0" r="12" fill="#8b5cf6"/>
  </g>
</svg>

