<svg xmlns="http://www.w3.org/2000/svg" viewBox="0 0 1584 396" fill="none">
  <defs>
    <linearGradient id="linkedinBg" x1="0%" y1="0%" x2="100%" y2="100%">
      <stop offset="0%" style="stop-color:#1e293b;stop-opacity:1" />
      <stop offset="100%" style="stop-color:#0f172a;stop-opacity:1" />
    </linearGradient>
    <linearGradient id="linkedinAccent" x1="0%" y1="0%" x2="100%" y2="100%">
      <stop offset="0%" style="stop-color:#06b6d4;stop-opacity:1" />
      <stop offset="100%" style="stop-color:#8b5cf6;stop-opacity:1" />
    </linearGradient>
  </defs>
  
  <rect width="1584" height="396" fill="url(#linkedinBg)"/>
  
  <!-- Professional grid pattern -->
  <g opacity="0.08">
    <line x1="0" y1="99" x2="1584" y2="99" stroke="#06b6d4" stroke-width="1"/>
    <line x1="0" y1="198" x2="1584" y2="198" stroke="#8b5cf6" stroke-width="1"/>
    <line x1="0" y1="297" x2="1584" y2="297" stroke="#06b6d4" stroke-width="1"/>
    <line x1="396" y1="0" x2="396" y2="396" stroke="#8b5cf6" stroke-width="1"/>
    <line x1="792" y1="0" x2="792" y2="396" stroke="#06b6d4" stroke-width="1"/>
    <line x1="1188" y1="0" x2="1188" y2="396" stroke="#8b5cf6" stroke-width="1"/>
  </g>
  
  <!-- Icon -->
  <g transform="translate(200, 198)">
    <path d="M -40,65 L -20,-65 L 5,-65 L -15,65 Z" fill="url(#linkedinAccent)"/>
    <path d="M 20,-65 L 40,65 L 15,65 L -5,-65 Z" fill="url(#linkedinAccent)"/>
    <rect x="-25" y="5" width="50" height="12" rx="6" fill="#06b6d4"/>
    <circle cx="0" cy="0" r="100" stroke="url(#linkedinAccent)" stroke-width="2" fill="none" opacity="0.3"/>
  </g>
  
  <!-- Professional text -->
  <g transform="translate(400, 150)">
    <text x="0" y="0" font-family="'Inter', sans-serif" font-size="70" font-weight="700" fill="white">
      <tspan font-weight="700">A</tspan><tspan font-weight="500" opacity="0.8">zora </tspan><tspan font-weight="400" opacity="0.6" font-size="55">OS</tspan>
    </text>
    <text x="0" y="50" font-family="'Inter', sans-serif" font-size="26" font-weight="500" fill="url(#linkedinAccent)">
      Africa's Quantum-Secure Intelligence Ecosystem
    </text>
    <text x="0" y="85" font-family="'Inter', sans-serif" font-size="20" font-weight="400" fill="#94a3b8">
      Open Source • Constitutional AI • Universal Human Infrastructure
    </text>
  </g>
</svg>

