<svg width="512" height="512" viewBox="0 0 512 512" fill="none" xmlns="http://www.w3.org/2000/svg">
  <!-- Background Circle -->
  <circle cx="256" cy="256" r="240" fill="url(#careers-gradient)"/>
  
  <!-- Briefcase Icon -->
  <path d="M186 206H326C337.046 206 346 214.954 346 226V316C346 327.046 337.046 336 326 336H186C174.954 336 166 327.046 166 316V226C166 214.954 174.954 206 186 206Z" fill="white"/>
  <path d="M186 206H326C337.046 206 346 214.954 346 226V316C346 327.046 337.046 336 326 336H186C174.954 336 166 327.046 166 316V226C166 214.954 174.954 206 186 206Z" stroke="#0066FF" stroke-width="4"/>
  
  <!-- Briefcase Handle -->
  <path d="M206 206V196C206 185.507 214.507 177 225 177H287C297.493 177 306 185.507 306 196V206" stroke="#0066FF" stroke-width="4" stroke-linecap="round"/>
  
  <!-- Handshake (Symbolic) -->
  <path d="M226 271L246 251L266 271L286 251" stroke="#00D084" stroke-width="4" stroke-linecap="round" stroke-linejoin="round"/>
  
  <!-- Success Arrow -->
  <path d="M196 291L226 321L316 231" stroke="#00D084" stroke-width="4" stroke-linecap="round" stroke-linejoin="round"/>
  
  <!-- Text: Azora Careers -->
  <text x="256" y="390" font-family="Inter, system-ui, sans-serif" font-weight="700" font-size="36" fill="#0A0E27" text-anchor="middle">AZORA</text>
  <text x="256" y="425" font-family="Inter, system-ui, sans-serif" font-weight="600" font-size="28" fill="#0066FF" text-anchor="middle">CAREERS</text>
  
  <!-- Gradient Definition -->
  <defs>
    <linearGradient id="careers-gradient" x1="256" y1="16" x2="256" y2="496">
      <stop offset="0%" stop-color="#E0F2FE"/>
      <stop offset="100%" stop-color="#DBEAFE"/>
    </linearGradient>
  </defs>
</svg>
